<svg width="179" height="66" viewBox="0 0 179 66" fill="none" xmlns="http://www.w3.org/2000/svg">
<path d="M0 0H11.2374L11.2646 65.9998H0.0272292L0 0Z" fill="white"/>
<path d="M65.0948 0V9.99623H45.8789L45.9061 65.9998H34.6687L34.6415 9.99623H15.4255V0H65.0948Z" fill="white"/>
<path d="M60.5537 66V59.0315H63.1678V52.8935H65.8663V47.0965H68.1432V41.0438H70.926V35.1616H74.1305V26.1251H89.247L104.674 66H93.3434L81.72 36.0141H79.4432V42.4078H76.6603V48.29H74.3835V54.3428H71.7693V59.0315H80.9556V66H68.9261H60.5537Z" fill="white"/>
<path d="M114.513 66L114.512 58.1888H118.332V49.8511H121.805V41.6889H125.712V33.6144H128.837V25.54H133.178V17.3778H137.085V9.30332H140.21V0.0264349L148.632 0.0264022V11.8485V41.6889V60.383V66H140.644V27.9974H137.259V36.0719H133.091V44.2341H129.271V52.3085H125.886V60.383H121.545V66H114.513Z" fill="white"/>
<path d="M152.167 33.6145V41.6889H148.632V60.383H152.34V52.3086H155.726V44.2341H159.546V36.0719H163.713V27.9974H167.099V19.923H170.919V11.8486H179V0.0264324L166.665 0.026465V9.30335H163.54V17.3778H159.633V25.54H155.292V33.6145H152.167Z" fill="white"/>
<path d="M179 66V11.8486H170.919V19.923H167.099V27.9974V66H179Z" fill="white"/>
</svg>
