<svg width="24" height="25" viewBox="0 0 24 25" fill="none" xmlns="http://www.w3.org/2000/svg">
<path d="M16 17.5L21 12.5M21 12.5L16 7.5M21 12.5H9M12 17.5C12 18.43 12 18.895 11.8978 19.2765C11.6204 20.3117 10.8117 21.1204 9.77646 21.3978C9.39496 21.5 8.92997 21.5 8 21.5H7.5C6.10218 21.5 5.40326 21.5 4.85195 21.2716C4.11687 20.9672 3.53284 20.3831 3.22836 19.6481C3 19.0967 3 18.3978 3 17V8C3 6.60217 3 5.90326 3.22836 5.35195C3.53284 4.61687 4.11687 4.03284 4.85195 3.72836C5.40326 3.5 6.10218 3.5 7.5 3.5H8C8.92997 3.5 9.39496 3.5 9.77646 3.60222C10.8117 3.87962 11.6204 4.68827 11.8978 5.72354C12 6.10504 12 6.57003 12 7.5" stroke="#888888" stroke-linecap="round" stroke-linejoin="round"/>
</svg>
